<?xml version="1.0" standalone="no"?>
<!DOCTYPE svg PUBLIC "-//W3C//DTD SVG 20010904//EN"
 "http://www.w3.org/TR/2001/REC-SVG-20010904/DTD/svg10.dtd">
<svg version="1.0" xmlns="http://www.w3.org/2000/svg"
 width="460.000000pt" height="460.000000pt" viewBox="0 0 460.000000 460.000000"
 preserveAspectRatio="xMidYMid meet">
<metadata>
Created by potrace 1.16, written by Peter Selinger 2001-2019
</metadata>
<g transform="translate(0.000000,460.000000) scale(0.100000,-0.100000)"
fill="#000000" stroke="none">
<path d="M1818 3245 c-15 -9 -37 -37 -51 -67 -22 -47 -26 -71 -30 -200 -6
-158 -15 -189 -63 -227 -15 -12 -35 -21 -45 -21 -16 0 -19 -8 -19 -50 0 -45 2
-50 23 -50 28 -1 74 -41 87 -76 6 -14 14 -97 18 -183 12 -226 36 -261 175
-261 l47 0 0 45 c0 45 0 45 -34 45 -22 0 -44 8 -60 23 -23 21 -25 30 -34 178
-10 175 -26 222 -90 266 l-34 22 34 14 c23 10 40 28 58 63 21 42 25 69 32 196
4 81 12 157 18 168 12 23 48 40 86 40 22 0 24 4 24 45 l0 45 -57 0 c-32 -1
-70 -7 -85 -15z"/>
<path d="M2650 3217 l0 -44 41 -6 c69 -9 72 -17 79 -189 8 -185 27 -243 87
-272 l37 -18 -33 -20 c-18 -11 -44 -43 -58 -72 -24 -46 -27 -64 -30 -186 -3
-74 -9 -148 -15 -163 -12 -30 -42 -47 -84 -47 -22 0 -24 -4 -24 -45 l0 -45 48
1 c79 1 113 18 140 71 22 42 25 66 31 205 4 89 12 168 19 180 16 29 61 63 83
63 16 0 19 8 19 50 0 37 -4 50 -15 50 -24 0 -83 59 -94 93 -5 18 -11 95 -14
173 -4 114 -9 148 -25 180 -32 63 -55 78 -128 82 l-64 4 0 -45z"/>
</g>
</svg>
