<?xml version="1.0" standalone="no"?>
<!DOCTYPE svg PUBLIC "-//W3C//DTD SVG 20010904//EN"
 "http://www.w3.org/TR/2001/REC-SVG-20010904/DTD/svg10.dtd">
<svg version="1.0" xmlns="http://www.w3.org/2000/svg"
 width="300.000000pt" height="300.000000pt" viewBox="0 0 300.000000 300.000000"
 preserveAspectRatio="xMidYMid meet">
<metadata>
Created by potrace 1.10, written by Peter Selinger 2001-2011
</metadata>
<g transform="translate(0.000000,300.000000) scale(0.100000,-0.100000)"
fill="#000000" stroke="none">
<path d="M1193 2120 c-38 -16 -56 -66 -61 -170 -4 -113 -14 -145 -53 -162 -24
-10 -29 -19 -29 -46 0 -20 4 -31 10 -27 6 4 24 -7 40 -24 28 -28 30 -34 30
-108 1 -100 13 -161 36 -183 11 -10 40 -20 67 -24 l47 -6 0 36 c0 29 -3 35
-16 30 -9 -4 -27 0 -39 8 -20 13 -23 25 -27 118 -6 108 -25 162 -60 174 -24 7
-23 21 3 29 32 10 51 69 56 176 3 54 9 103 14 110 4 7 21 12 38 12 28 0 31 3
31 34 0 31 -2 33 -32 32 -18 0 -43 -4 -55 -9z"/>
<path d="M1722 2098 c3 -28 7 -33 32 -35 16 -1 34 -7 39 -12 6 -6 13 -59 17
-118 8 -119 22 -160 56 -169 23 -6 23 -7 -11 -38 -39 -37 -43 -50 -48 -174 -2
-51 -8 -97 -14 -103 -5 -5 -23 -11 -39 -13 -25 -3 -29 -8 -29 -32 0 -27 2 -29
35 -26 19 1 45 5 56 7 34 7 54 72 54 170 0 100 10 130 50 153 22 12 30 24 30
45 0 16 -5 27 -13 27 -8 0 -24 12 -38 26 -21 23 -24 37 -29 137 -8 148 -31
187 -113 187 -37 0 -38 -1 -35 -32z"/>
<path d="M1410 2055 c0 -20 5 -25 25 -25 20 0 25 5 25 25 0 20 -5 25 -25 25
-20 0 -25 -5 -25 -25z"/>
<path d="M1530 2010 c0 -11 7 -20 15 -20 8 0 15 9 15 20 0 11 -7 20 -15 20 -8
0 -15 -9 -15 -20z"/>
<path d="M1587 1991 c-6 -24 0 -31 25 -31 13 0 18 7 18 25 0 31 -35 35 -43 6z"/>
<path d="M1370 1945 l0 -45 48 0 47 0 0 45 1 45 -48 0 -48 0 0 -45z"/>
<path d="M1270 1931 c0 -15 6 -21 21 -21 14 0 19 5 17 17 -5 26 -38 29 -38 4z"/>
<path d="M1610 1930 c0 -13 7 -20 20 -20 13 0 20 7 20 20 0 13 -7 20 -20 20
-13 0 -20 -7 -20 -20z"/>
<path d="M1700 1911 c0 -15 6 -21 21 -21 14 0 19 5 17 17 -5 26 -38 29 -38 4z"/>
<path d="M1510 1885 c0 -33 2 -35 35 -35 33 0 35 2 35 35 0 33 -2 35 -35 35
-33 0 -35 -2 -35 -35z"/>
<path d="M1285 1810 l0 -40 42 0 43 0 0 40 0 40 -43 0 -42 0 0 -40z"/>
<path d="M1430 1835 c0 -8 9 -15 20 -15 11 0 20 7 20 15 0 8 -9 15 -20 15 -11
0 -20 -7 -20 -15z"/>
<path d="M1610 1815 c0 -33 2 -35 35 -35 33 0 35 2 35 35 0 33 -2 35 -35 35
-33 0 -35 -2 -35 -35z"/>
<path d="M1510 1780 l0 -40 45 0 45 0 -3 40 -2 40 -42 0 -43 0 0 -40z"/>
<path d="M1380 1725 c0 -33 2 -35 35 -35 33 0 35 2 35 35 0 33 -2 35 -35 35
-33 0 -35 -2 -35 -35z"/>
<path d="M1620 1710 c0 -27 3 -30 30 -30 27 0 30 3 30 30 0 27 -3 30 -30 30
-27 0 -30 -3 -30 -30z"/>
<path d="M1490 1700 c0 -13 7 -20 20 -20 13 0 20 7 20 20 0 13 -7 20 -20 20
-13 0 -20 -7 -20 -20z"/>
<path d="M1297 1670 c-4 -15 0 -20 14 -20 12 0 19 7 19 20 0 11 -6 20 -14 20
-7 0 -16 -9 -19 -20z"/>
<path d="M1546 1683 c-3 -4 -6 -19 -6 -35 0 -25 3 -28 36 -28 34 0 35 1 32 32
-2 27 -7 33 -30 35 -14 1 -29 -1 -32 -4z"/>
<path d="M1380 1650 c0 -11 7 -20 15 -20 8 0 15 9 15 20 0 11 -7 20 -15 20 -8
0 -15 -9 -15 -20z"/>
<path d="M1459 1666 c0 -1 -1 -16 -2 -34 -2 -30 0 -32 31 -32 29 0 32 3 32 29
0 24 -5 29 -30 33 -16 3 -30 4 -31 4z"/>
<path d="M1330 1550 l0 -50 50 0 50 0 0 50 0 50 -50 0 -50 0 0 -50z m64 12 c2
-4 1 -14 -4 -22 -7 -11 -12 -12 -21 -3 -6 6 -8 16 -5 22 8 13 23 14 30 3z"/>
<path d="M1560 1545 c0 -33 2 -35 35 -35 33 0 35 2 35 35 0 33 -2 35 -35 35
-33 0 -35 -2 -35 -35z"/>
<path d="M1460 1520 c0 -28 3 -30 35 -30 32 0 35 2 35 30 0 28 -3 30 -35 30
-32 0 -35 -2 -35 -30z"/>
<path d="M1350 1405 c0 -33 2 -35 35 -35 33 0 35 2 35 35 0 33 -2 35 -35 35
-33 0 -35 -2 -35 -35z"/>
<path d="M1450 1410 c0 -13 7 -20 19 -20 14 0 18 5 14 20 -3 11 -12 20 -19 20
-8 0 -14 -9 -14 -20z"/>
<path d="M1345 1190 c3 -5 14 -10 24 -10 15 0 17 -7 13 -55 -4 -47 -2 -55 13
-55 15 0 17 8 13 55 -4 52 -3 55 19 55 13 0 23 5 23 10 0 6 -25 10 -56 10 -34
0 -53 -4 -49 -10z"/>
<path d="M1460 1135 c0 -53 3 -65 16 -65 12 0 15 7 11 27 -6 33 1 53 19 53 10
0 14 -12 14 -40 0 -22 5 -40 11 -40 6 0 9 19 7 48 -3 45 -4 47 -31 45 -24 -2
-27 1 -22 18 4 13 2 19 -9 19 -13 0 -16 -13 -16 -65z"/>
<path d="M1582 1161 c-8 -5 -12 -23 -10 -47 2 -32 7 -40 27 -42 13 -2 28 1 34
7 8 8 3 11 -16 11 -15 0 -27 5 -27 10 0 6 14 10 30 10 34 0 40 19 14 44 -17
18 -32 20 -52 7z"/>
<path d="M932 968 c-6 -6 -12 -33 -12 -60 0 -37 4 -50 19 -58 25 -13 71 3 71
25 0 19 -9 19 -31 -1 -26 -23 -39 -9 -39 42 0 37 3 44 20 44 10 0 23 -8 29
-17 5 -10 13 -14 17 -10 13 13 -11 42 -37 45 -13 2 -30 -3 -37 -10z"/>
<path d="M1200 961 c0 -14 -8 -21 -27 -23 -25 -3 -28 -7 -28 -43 0 -39 1 -40
38 -43 l37 -3 0 65 c0 37 -4 66 -10 66 -5 0 -10 -9 -10 -19z m-5 -51 c7 -22
-11 -53 -26 -44 -5 3 -9 15 -9 28 0 39 24 50 35 16z"/>
<path d="M1552 972 c-9 -6 -12 -26 -10 -62 2 -44 7 -54 25 -61 16 -6 29 -3 45
11 13 10 20 21 16 25 -4 4 -14 0 -23 -8 -25 -25 -45 -10 -45 34 0 46 24 64 46
34 17 -23 33 -11 18 13 -12 19 -52 27 -72 14z"/>
<path d="M1920 915 c0 -45 4 -65 13 -65 8 0 12 20 12 65 0 46 -3 65 -12 65 -9
0 -13 -19 -13 -65z"/>
<path d="M1758 953 c-2 -9 -1 -36 1 -60 2 -34 7 -43 22 -43 10 0 19 5 19 10 0
6 -4 10 -10 10 -15 0 -12 57 3 63 10 4 10 6 0 6 -7 1 -13 8 -13 16 0 20 -18
19 -22 -2z"/>
<path d="M2158 953 c-2 -10 -1 -36 2 -58 4 -32 10 -41 28 -43 25 -4 30 13 7
22 -21 7 -19 43 3 55 9 6 11 11 5 11 -7 0 -13 7 -13 15 0 21 -27 19 -32 -2z"/>
<path d="M1037 933 c-4 -3 -7 -21 -7 -38 0 -50 57 -68 80 -25 17 31 -4 70 -38
70 -16 0 -32 -3 -35 -7z m53 -37 c0 -29 -10 -39 -27 -25 -16 14 -17 46 0 52
18 7 27 -2 27 -27z"/>
<path d="M1240 895 c0 -33 4 -45 15 -45 11 0 15 12 15 45 0 33 -4 45 -15 45
-11 0 -15 -12 -15 -45z"/>
<path d="M1290 895 c0 -31 4 -45 14 -45 9 0 13 12 12 38 -1 27 3 37 14 37 10
0 16 -12 18 -37 4 -53 22 -47 22 7 l0 45 -40 0 -40 0 0 -45z"/>
<path d="M1397 933 c-11 -11 -8 -58 5 -71 7 -7 23 -12 36 -12 13 0 20 -4 17
-10 -3 -5 -15 -10 -26 -10 -20 0 -22 -21 -3 -27 23 -8 43 24 49 80 l7 57 -39
0 c-22 0 -43 -3 -46 -7z m57 -51 c-13 -20 -25 -20 -38 1 -7 10 -5 21 4 32 12
15 15 15 29 0 12 -12 13 -19 5 -33z"/>
<path d="M1655 930 c-4 -7 1 -10 17 -8 30 4 36 -15 6 -22 -14 -4 -23 -13 -23
-25 0 -16 8 -21 38 -23 l38 -3 -3 43 c-3 40 -5 43 -35 46 -17 2 -34 -2 -38 -8z"/>
<path d="M1825 930 c-4 -7 2 -10 21 -8 15 2 29 -3 31 -9 3 -8 -5 -13 -21 -13
-15 0 -29 -7 -33 -16 -9 -24 18 -43 50 -37 26 5 28 9 25 47 -3 38 -5 41 -35
44 -17 2 -34 -2 -38 -8z"/>
<path d="M1976 903 c18 -50 17 -70 -2 -77 -8 -3 -12 -10 -9 -16 13 -21 38 8
61 69 17 45 20 61 10 61 -7 0 -18 -15 -23 -32 l-11 -33 -7 33 c-4 17 -13 32
-20 32 -10 0 -10 -8 1 -37z"/>
<path d="M2067 933 c-14 -14 -6 -34 18 -45 34 -15 32 -32 -2 -24 -26 6 -26 5
-10 -8 18 -14 53 -11 62 4 9 15 -7 38 -31 44 -13 4 -24 11 -24 16 0 13 27 13
35 0 4 -6 11 -8 16 -4 5 3 7 10 4 15 -7 10 -58 12 -68 2z"/>
</g>
</svg>
